M48
; DRILL file {KiCad (5.1.8)-1} date 03/25/21 23:06:41
; FORMAT={-:-/ absolute / inch / decimal}
; #@! TF.CreationDate,2021-03-25T23:06:41+02:00
; #@! TF.GenerationSoftware,Kicad,Pcbnew,(5.1.8)-1
; #@! TF.FileFunction,Plated,1,2,PTH
FMAT,2
INCH
T1C0.0157
T2C0.0315
T3C0.0984
%
G90
G05
T1
X4.2Y-2.4
X4.25Y-2.2
X4.3Y-2.6
X4.3904Y-2.5404
X4.514Y-2.6
X4.65Y-2.4
X4.7Y-3.15
X4.75Y-2.9
X4.7976Y-2.9
X4.95Y-2.9
X5.05Y-2.55
X5.1Y-2.95
T2
X4.35Y-2.3
X4.35Y-2.3787
X4.35Y-2.4575
X4.4287Y-2.3
X4.4287Y-2.3787
X4.4287Y-2.4575
X4.1633Y-2.75
X4.1633Y-2.85
X4.1633Y-2.95
X4.1633Y-3.05
X4.4633Y-2.75
X4.4633Y-2.85
X4.4633Y-2.95
X4.4633Y-3.05
T3
X4.5Y-3.35
T0
M30
