%TF.GenerationSoftware,KiCad,Pcbnew,(5.1.8)-1*%
%TF.CreationDate,2021-03-25T23:04:17+02:00*%
%TF.ProjectId,charlie_keychain,63686172-6c69-4655-9f6b-657963686169,rev?*%
%TF.SameCoordinates,Original*%
%TF.FileFunction,Copper,L2,Bot*%
%TF.FilePolarity,Positive*%
%FSLAX46Y46*%
G04 Gerber Fmt 4.6, Leading zero omitted, Abs format (unit mm)*
G04 Created by KiCad (PCBNEW (5.1.8)-1) date 2021-03-25 23:04:17*
%MOMM*%
%LPD*%
G01*
G04 APERTURE LIST*
%TA.AperFunction,ComponentPad*%
%ADD10O,1.600000X1.600000*%
%TD*%
%TA.AperFunction,ComponentPad*%
%ADD11R,1.600000X1.600000*%
%TD*%
%TA.AperFunction,SMDPad,CuDef*%
%ADD12R,3.600000X2.600000*%
%TD*%
%TA.AperFunction,ConnectorPad*%
%ADD13C,5.000000*%
%TD*%
%TA.AperFunction,ComponentPad*%
%ADD14C,2.900000*%
%TD*%
%TA.AperFunction,ComponentPad*%
%ADD15O,1.350000X1.350000*%
%TD*%
%TA.AperFunction,ComponentPad*%
%ADD16R,1.350000X1.350000*%
%TD*%
%TA.AperFunction,ViaPad*%
%ADD17C,0.800000*%
%TD*%
%TA.AperFunction,Conductor*%
%ADD18C,0.250000*%
%TD*%
%TA.AperFunction,Conductor*%
%ADD19C,0.200000*%
%TD*%
G04 APERTURE END LIST*
D10*
%TO.P,U1,8*%
%TO.N,VCC*%
X113366618Y-69850000D03*
%TO.P,U1,4*%
%TO.N,GND*%
X105746618Y-77470000D03*
%TO.P,U1,7*%
%TO.N,SCK*%
X113366618Y-72390000D03*
%TO.P,U1,3*%
%TO.N,pin_D*%
X105746618Y-74930000D03*
%TO.P,U1,6*%
%TO.N,Net-(SW2-Pad1)*%
X113366618Y-74930000D03*
%TO.P,U1,2*%
%TO.N,pin_C*%
X105746618Y-72390000D03*
%TO.P,U1,5*%
%TO.N,MOSI*%
X113366618Y-77470000D03*
D11*
%TO.P,U1,1*%
%TO.N,RESET*%
X105746618Y-69850000D03*
%TD*%
D12*
%TO.P,BT1,2*%
%TO.N,GND*%
X125730000Y-87040000D03*
%TO.P,BT1,1*%
%TO.N,Net-(BT1-Pad1)*%
X125730000Y-57740000D03*
%TD*%
D13*
%TO.P,H1,1*%
%TO.N,GND*%
X114300000Y-85090000D03*
D14*
X114300000Y-85090000D03*
%TD*%
D15*
%TO.P,J1,6*%
%TO.N,GND*%
X112490000Y-62420000D03*
%TO.P,J1,5*%
%TO.N,RESET*%
X110490000Y-62420000D03*
%TO.P,J1,4*%
%TO.N,MOSI*%
X112490000Y-60420000D03*
%TO.P,J1,3*%
%TO.N,SCK*%
X110490000Y-60420000D03*
%TO.P,J1,2*%
%TO.N,VCC*%
X112490000Y-58420000D03*
D16*
%TO.P,J1,1*%
%TO.N,MISO*%
X110490000Y-58420000D03*
%TD*%
D17*
%TO.N,Net-(BT1-Pad1)*%
X107950000Y-55880000D03*
%TO.N,Net-(D1-Pad2)*%
X125730000Y-73660000D03*
X128270000Y-64770000D03*
%TO.N,Net-(D1-Pad1)*%
X121859996Y-73660000D03*
X118110000Y-60960000D03*
%TO.N,SCK*%
X109220000Y-66040000D03*
%TO.N,MOSI*%
X114655289Y-66040000D03*
%TO.N,pin_C*%
X129540000Y-74930000D03*
%TO.N,VCC*%
X106680000Y-60960000D03*
%TO.N,MISO*%
X111514999Y-64524999D03*
X120650000Y-73660000D03*
%TO.N,pin_D*%
X119380000Y-80010000D03*
%TD*%
D18*
%TO.N,Net-(BT1-Pad1)*%
X123870000Y-55880000D02*
X125730000Y-57740000D01*
X107950000Y-55880000D02*
X123870000Y-55880000D01*
%TO.N,GND*%
X116250000Y-87040000D02*
X114300000Y-85090000D01*
X125730000Y-87040000D02*
X116250000Y-87040000D01*
X109220000Y-83820000D02*
X109220000Y-83820000D01*
X110490000Y-85090000D02*
X114300000Y-85090000D01*
X105746618Y-80346618D02*
X110490000Y-85090000D01*
X105746618Y-77470000D02*
X105746618Y-80346618D01*
X104621617Y-76344999D02*
X105746618Y-77470000D01*
X104621617Y-71849999D02*
X104621617Y-76344999D01*
X106516621Y-71264999D02*
X105206617Y-71264999D01*
X110789998Y-66991622D02*
X106516621Y-71264999D01*
X110789998Y-64120002D02*
X110789998Y-66991622D01*
X105206617Y-71264999D02*
X104621617Y-71849999D01*
X112490000Y-62420000D02*
X110789998Y-64120002D01*
%TO.N,Net-(D1-Pad2)*%
X125730000Y-73660000D02*
X125730000Y-67310000D01*
X125730000Y-67310000D02*
X128270000Y-64770000D01*
X128270000Y-64770000D02*
X128270000Y-64770000D01*
%TO.N,Net-(D1-Pad1)*%
X121859996Y-73660000D02*
X121859996Y-63439996D01*
X121859996Y-63439996D02*
X119380000Y-60960000D01*
X119380000Y-60960000D02*
X118110000Y-60960000D01*
X118110000Y-60960000D02*
X118110000Y-60960000D01*
%TO.N,SCK*%
X109220000Y-61690000D02*
X110490000Y-60420000D01*
X109220000Y-66040000D02*
X109220000Y-61690000D01*
%TO.N,MOSI*%
X114655289Y-62585289D02*
X112490000Y-60420000D01*
X114655289Y-66040000D02*
X114655289Y-62585289D01*
%TO.N,pin_C*%
X109411619Y-76055001D02*
X128414999Y-76055001D01*
X105746618Y-72390000D02*
X109411619Y-76055001D01*
X128414999Y-76055001D02*
X129540000Y-74930000D01*
X129540000Y-74930000D02*
X129540000Y-74930000D01*
%TO.N,VCC*%
X109554999Y-57419999D02*
X106680000Y-60294998D01*
X111489999Y-57419999D02*
X109554999Y-57419999D01*
X112490000Y-58420000D02*
X111489999Y-57419999D01*
X106680000Y-60294998D02*
X106680000Y-60960000D01*
X106680000Y-60960000D02*
X106680000Y-60960000D01*
D19*
%TO.N,MISO*%
X111514999Y-64524999D02*
X120650000Y-73660000D01*
X120650000Y-73660000D02*
X120650000Y-73660000D01*
D18*
%TO.N,pin_D*%
X110826618Y-80010000D02*
X105746618Y-74930000D01*
X119380000Y-80010000D02*
X110826618Y-80010000D01*
%TD*%
M02*
