%TF.GenerationSoftware,KiCad,Pcbnew,(5.1.8)-1*%
%TF.CreationDate,2021-03-25T23:04:17+02:00*%
%TF.ProjectId,charlie_keychain,63686172-6c69-4655-9f6b-657963686169,rev?*%
%TF.SameCoordinates,Original*%
%TF.FileFunction,Legend,Bot*%
%TF.FilePolarity,Positive*%
%FSLAX46Y46*%
G04 Gerber Fmt 4.6, Leading zero omitted, Abs format (unit mm)*
G04 Created by KiCad (PCBNEW (5.1.8)-1) date 2021-03-25 23:04:17*
%MOMM*%
%LPD*%
G01*
G04 APERTURE LIST*
%ADD10C,0.120000*%
%ADD11C,0.150000*%
G04 APERTURE END LIST*
D10*
%TO.C,BT1*%
X131730000Y-60390000D02*
X131730000Y-58390000D01*
X130730000Y-59390000D02*
X132730000Y-59390000D01*
X117380000Y-83740000D02*
X121880000Y-83740000D01*
X117380000Y-61040000D02*
X121880000Y-61040000D01*
X117380000Y-61040000D02*
X117380000Y-83740000D01*
X121880000Y-86940000D02*
X123430000Y-86940000D01*
X121880000Y-83740000D02*
X121880000Y-86940000D01*
X121880000Y-57840000D02*
X123430000Y-57840000D01*
X121880000Y-61040000D02*
X121880000Y-57840000D01*
X129580000Y-57840000D02*
X128030000Y-57840000D01*
X129580000Y-61040000D02*
X129580000Y-57840000D01*
X134080000Y-62840000D02*
X132280000Y-61040000D01*
X132280000Y-61040000D02*
X129580000Y-61040000D01*
X134080000Y-83740000D02*
X134080000Y-62840000D01*
X134080000Y-83740000D02*
X129580000Y-83740000D01*
X129580000Y-86940000D02*
X128030000Y-86940000D01*
X129580000Y-83740000D02*
X129580000Y-86940000D01*
D11*
X120358571Y-57479285D02*
X120406190Y-57622142D01*
X120453809Y-57669761D01*
X120549047Y-57717380D01*
X120691904Y-57717380D01*
X120787142Y-57669761D01*
X120834761Y-57622142D01*
X120882380Y-57526904D01*
X120882380Y-57145952D01*
X119882380Y-57145952D01*
X119882380Y-57479285D01*
X119930000Y-57574523D01*
X119977619Y-57622142D01*
X120072857Y-57669761D01*
X120168095Y-57669761D01*
X120263333Y-57622142D01*
X120310952Y-57574523D01*
X120358571Y-57479285D01*
X120358571Y-57145952D01*
X119882380Y-58003095D02*
X119882380Y-58574523D01*
X120882380Y-58288809D02*
X119882380Y-58288809D01*
X120882380Y-59431666D02*
X120882380Y-58860238D01*
X120882380Y-59145952D02*
X119882380Y-59145952D01*
X120025238Y-59050714D01*
X120120476Y-58955476D01*
X120168095Y-58860238D01*
%TO.C,SW2*%
X121054761Y-78966666D02*
X121102380Y-79109523D01*
X121102380Y-79347619D01*
X121054761Y-79442857D01*
X121007142Y-79490476D01*
X120911904Y-79538095D01*
X120816666Y-79538095D01*
X120721428Y-79490476D01*
X120673809Y-79442857D01*
X120626190Y-79347619D01*
X120578571Y-79157142D01*
X120530952Y-79061904D01*
X120483333Y-79014285D01*
X120388095Y-78966666D01*
X120292857Y-78966666D01*
X120197619Y-79014285D01*
X120150000Y-79061904D01*
X120102380Y-79157142D01*
X120102380Y-79395238D01*
X120150000Y-79538095D01*
X120102380Y-79871428D02*
X121102380Y-80109523D01*
X120388095Y-80300000D01*
X121102380Y-80490476D01*
X120102380Y-80728571D01*
X120197619Y-81061904D02*
X120150000Y-81109523D01*
X120102380Y-81204761D01*
X120102380Y-81442857D01*
X120150000Y-81538095D01*
X120197619Y-81585714D01*
X120292857Y-81633333D01*
X120388095Y-81633333D01*
X120530952Y-81585714D01*
X121102380Y-81014285D01*
X121102380Y-81633333D01*
%TD*%
M02*
